{
	"asset":{
		"generator":"Khronos glTF Blender I/O v3.6.27",
		"version":"2.0"
	},
	"extensionsUsed":[
		"KHR_materials_emissive_strength"
	],
	"scene":0,
	"scenes":[
		{
			"name":"Scene",
			"nodes":[
				0
			]
		}
	],
	"nodes":[
		{
			"mesh":0,
			"name":"Curve"
		}
	],
	"materials":[
		{
			"doubleSided":true,
			"emissiveFactor":[
				1,
				1,
				1
			],
			"extensions":{
				"KHR_materials_emissive_strength":{
					"emissiveStrength":9.460000038146973
				}
			},
			"name":"Material.001",
			"pbrMetallicRoughness":{
				"baseColorFactor":[
					0,
					0,
					0,
					1
				]
			}
		}
	],
	"meshes":[
		{
			"name":"Mesh",
			"primitives":[
				{
					"attributes":{
						"POSITION":0,
						"NORMAL":1
					},
					"indices":2,
					"material":0
				}
			]
		}
	],
	"accessors":[
		{
			"bufferView":0,
			"componentType":5126,
			"count":3632,
			"max":[
				0.48472198843955994,
				0.46898379921913147,
				2.8856600664539656e-08
			],
			"min":[
				-0.5003581047058105,
				-0.4064588248729706,
				-0.15000003576278687
			],
			"type":"VEC3"
		},
		{
			"bufferView":1,
			"componentType":5126,
			"count":3632,
			"type":"VEC3"
		},
		{
			"bufferView":2,
			"componentType":5123,
			"count":21792,
			"type":"SCALAR"
		}
	],
	"bufferViews":[
		{
			"buffer":0,
			"byteLength":43584,
			"byteOffset":0,
			"target":34962
		},
		{
			"buffer":0,
			"byteLength":43584,
			"byteOffset":43584,
			"target":34962
		},
		{
			"buffer":0,
			"byteLength":43584,
			"byteOffset":87168,
			"target":34963
		}
	],
	"buffers":[
		{
			"byteLength":130752,
			"uri":"logo.bin"
		}
	]
}
